HIERARCHY
ROOT Hips
{
	OFFSET -0.001795 -0.223333 0.028219
	CHANNELS 6 Xposition Yposition Zposition Zrotation Yrotation Xrotation 
	JOINT LeftUpLeg
	{
		OFFSET 0.069520 -0.091406 -0.006815
		CHANNELS 3 Zrotation Yrotation Xrotation
		JOINT LeftLeg
		{
			OFFSET 0.034277 -0.375199 -0.004496
			CHANNELS 3 Zrotation Yrotation Xrotation
			JOINT LeftFoot
			{
				OFFSET -0.013596 -0.397961 -0.043693
				CHANNELS 3 Zrotation Yrotation Xrotation
				JOINT LeftToe
				{
					OFFSET 0.026358 -0.055791 0.119288
					CHANNELS 3 Zrotation Yrotation Xrotation
					End Site
					{
						OFFSET 0.000000 0.000000 0.000000
					}
				}
			}
		}
	}
	JOINT RightUpLeg
	{
		OFFSET -0.067670 -0.090522 -0.004320
		CHANNELS 3 Zrotation Yrotation Xrotation
		JOINT RightLeg
		{
			OFFSET -0.038290 -0.382569 -0.008850
			CHANNELS 3 Zrotation Yrotation Xrotation
			JOINT RightFoot
			{
				OFFSET 0.015774 -0.398415 -0.042312
				CHANNELS 3 Zrotation Yrotation Xrotation
				JOINT RightToe
				{
					OFFSET -0.025372 -0.048144 0.123348
					CHANNELS 3 Zrotation Yrotation Xrotation
					End Site
					{
						OFFSET 0.000000 0.000000 0.000000
					}
				}
			}
		}
	}
	JOINT Spine
	{
		OFFSET -0.002533 0.108963 -0.026696
		CHANNELS 3 Zrotation Yrotation Xrotation
		JOINT Spine1
		{
			OFFSET 0.005487 0.135180 0.001092
			CHANNELS 3 Zrotation Yrotation Xrotation
			JOINT Spine2
			{
				OFFSET 0.001457 0.052922 0.025425
				CHANNELS 3 Zrotation Yrotation Xrotation
				JOINT Neck
				{
					OFFSET -0.002778 0.213870 -0.042857
					CHANNELS 3 Zrotation Yrotation Xrotation
					JOINT Head
					{
						OFFSET 0.005152 0.064970 0.051349
						CHANNELS 3 Zrotation Yrotation Xrotation
						End Site
						{
							OFFSET 0.000000 0.000000 0.000000
						}
					}
				}
				JOINT LeftShoulder
				{
					OFFSET 0.078845 0.121749 -0.034090
					CHANNELS 3 Zrotation Yrotation Xrotation
					JOINT LeftArm
					{
						OFFSET 0.090977 0.030469 -0.008868
						CHANNELS 3 Zrotation Yrotation Xrotation
						JOINT LeftForeArm
						{
							OFFSET 0.259612 -0.012772 -0.027456
							CHANNELS 3 Zrotation Yrotation Xrotation
							JOINT LeftHand
							{
								OFFSET 0.249234 0.008986 -0.001171
								CHANNELS 3 Zrotation Yrotation Xrotation
								End Site
								{
									OFFSET 0.000000 0.000000 0.000000
								}
							}
						}
					}
				}
				JOINT RightShoulder
				{
					OFFSET -0.081759 0.118833 -0.038615
					CHANNELS 3 Zrotation Yrotation Xrotation
					JOINT RightArm
					{
						OFFSET -0.096012 0.032551 -0.009143
						CHANNELS 3 Zrotation Yrotation Xrotation
						JOINT RightForeArm
						{
							OFFSET -0.253742 -0.013329 -0.021401
							CHANNELS 3 Zrotation Yrotation Xrotation
							JOINT RightHand
							{
								OFFSET -0.255298 0.007772 -0.005559
								CHANNELS 3 Zrotation Yrotation Xrotation
								End Site
								{
									OFFSET 0.000000 0.000000 0.000000
								}
							}
						}
					}
				}
			}
		}
	}
}
MOTION
Frames: 12
Frame Time: 0.050000
0.000000 0.951014 0.000000 -1.291210 1.225379 1.910113 5.641814 0.080708 4.806569 -4.390620 0.426089 -7.465468 4.916571 12.733990 12.618528 0.000000 0.000000 0.000000 -3.834112 -0.051691 2.166004 3.342805 -0.404460 -4.113429 -4.310607 -13.144143 13.433412 0.000000 0.000000 0.000000 -1.421974 0.020009 -0.002972 4.192911 -0.476494 -22.494965 -1.079513 -0.707414 28.909012 0.735981 1.127107 -25.794570 0.000000 0.000000 0.000000 -24.542201 2.151131 -2.772625 -53.672497 -8.024760 -5.411410 -12.325353 -20.471263 3.292038 0.000000 0.000000 0.000000 16.448072 1.987351 0.268574 60.478335 5.763441 -5.728233 5.265333 20.445784 1.785575 0.000000 0.000000 0.000000 
0.000156 0.950144 0.000399 -1.362187 0.613843 2.330475 6.102427 0.051074 4.617492 -4.649477 0.443598 -7.595200 5.267739 13.193465 12.409804 0.000000 0.000000 0.000000 -3.882231 0.008915 1.450384 3.519993 -0.404646 -3.329229 -3.908339 -12.329370 12.411020 0.000000 0.000000 0.000000 -1.419898 0.059861 -1.312059 4.278484 -0.573296 -21.410546 -1.240614 -0.487758 28.889941 0.369157 1.296642 -25.403313 0.000000 0.000000 0.000000 -25.036246 3.161536 -3.412353 -53.265833 -8.439594 -5.204727 -13.131625 -20.948947 3.535911 0.000000 0.000000 0.000000 15.979367 2.147093 0.326891 61.863054 5.202377 -6.109393 4.138144 22.076076 1.767322 0.000000 0.000000 0.000000 
0.000335 0.950151 0.000527 -1.015792 0.362923 2.537135 5.937546 0.038689 3.956436 -5.280043 0.489711 -6.300224 5.218194 13.030329 11.961469 0.000000 0.000000 0.000000 -4.188477 0.026854 1.438024 3.052002 -0.373696 -3.936345 -3.522886 -11.781955 13.193893 0.000000 0.000000 0.000000 -1.365515 0.073548 -1.754367 3.702211 -0.424535 -21.402555 -1.194880 -0.687822 29.066121 -0.121613 1.506094 -25.028901 0.000000 0.000000 0.000000 -24.686028 2.786145 -3.006064 -53.336363 -8.712961 -5.138405 -12.044410 -21.073355 3.363239 0.000000 0.000000 0.000000 16.409725 2.644146 0.479101 61.161514 4.898967 -6.229666 4.112103 21.939392 1.723411 0.000000 0.000000 0.000000 
0.000410 0.950174 0.000693 -0.993962 -0.058001 2.661496 6.170000 0.029639 3.885742 -5.549065 0.512937 -6.100765 5.355528 13.217122 11.994968 0.000000 0.000000 0.000000 -4.398867 0.066721 1.028650 3.313343 -0.385062 -3.564439 -3.555568 -11.963715 13.620835 0.000000 0.000000 0.000000 -1.500978 0.082926 -2.033338 4.034730 -0.512446 -21.540856 -1.416626 -0.706516 29.283208 -0.334592 1.563894 -24.564700 0.000000 0.000000 0.000000 -25.419407 3.818923 -3.637866 -52.837275 -8.904430 -5.059404 -13.099778 -20.796009 3.531693 0.000000 0.000000 0.000000 16.147492 2.788878 0.505877 61.146118 4.824029 -6.299048 5.156919 22.335089 1.939418 0.000000 0.000000 0.000000 
0.000385 0.950773 0.000744 -0.993293 0.133860 2.519881 6.185330 0.021930 3.745648 -5.574091 0.515464 -5.834321 4.899801 12.499158 11.887218 0.000000 0.000000 0.000000 -4.333022 0.046662 1.254332 3.009147 -0.366406 -3.737970 -3.352999 -11.589052 13.683373 0.000000 0.000000 0.000000 -1.437789 0.069334 -1.591851 4.236229 -0.578877 -21.272915 -1.668236 -0.771265 28.639497 -0.450231 1.630079 -24.165528 0.000000 0.000000 0.000000 -25.177400 3.812436 -3.656133 -52.981273 -8.948790 -4.965722 -13.311652 -21.208455 3.638882 0.000000 0.000000 0.000000 16.071349 2.683342 0.446343 60.882872 4.755840 -6.231005 5.641505 22.072552 1.987637 0.000000 0.000000 0.000000 
0.000391 0.951372 0.000805 -0.951000 0.029098 2.474427 6.159251 0.020722 3.600485 -5.558617 0.520688 -5.559232 4.889869 12.472626 11.857483 0.000000 0.000000 0.000000 -4.423191 0.041261 1.411146 2.986279 -0.363934 -3.726202 -3.167133 -11.319905 13.958896 0.000000 0.000000 0.000000 -1.646277 0.069734 -1.588902 4.400801 -0.598908 -21.678333 -1.685555 -0.913032 29.159027 -0.722500 1.755669 -24.139623 0.000000 0.000000 0.000000 -25.294071 4.140430 -3.783002 -53.058698 -9.183915 -4.943506 -13.299586 -21.481377 3.708368 0.000000 0.000000 0.000000 15.683285 2.679089 0.427422 60.967037 4.749416 -6.305098 5.900823 22.241525 2.049193 0.000000 0.000000 0.000000 
0.000372 0.951643 0.000809 -0.969312 -0.016863 2.367240 6.190077 0.025888 3.721894 -5.606835 0.521841 -5.717866 4.934521 12.617617 12.366450 0.000000 0.000000 0.000000 -4.346684 0.035933 1.436593 2.952122 -0.359176 -3.579333 -3.046854 -11.099111 13.894986 0.000000 0.000000 0.000000 -1.651315 0.062320 -1.329787 4.439093 -0.622358 -21.495943 -1.832260 -1.059840 29.074845 -0.675027 1.696361 -24.127783 0.000000 0.000000 0.000000 -25.606841 4.103489 -3.737776 -52.876360 -9.203313 -4.937390 -13.355443 -21.793245 3.785519 0.000000 0.000000 0.000000 15.701133 3.025404 0.564091 60.965695 4.808287 -6.273555 5.970793 22.616360 2.096020 0.000000 0.000000 0.000000 
0.000386 0.951609 0.000807 -1.048983 -0.117182 2.332755 6.250937 0.021884 3.634675 -5.616580 0.527379 -5.495608 5.105087 12.829939 12.046923 0.000000 0.000000 0.000000 -4.233638 0.033999 1.402585 2.979095 -0.358273 -3.402654 -3.062457 -11.086394 13.610037 0.000000 0.000000 0.000000 -1.643822 0.063417 -1.371440 4.473832 -0.638611 -21.422519 -1.890186 -1.057870 29.276044 -0.799002 1.749895 -23.868029 0.000000 0.000000 0.000000 -25.789733 3.913238 -3.608170 -52.531410 -9.327168 -4.896696 -13.179050 -22.132408 3.814679 0.000000 0.000000 0.000000 15.886759 3.137597 0.604492 60.741663 4.919152 -6.225642 5.761593 22.790795 2.075324 0.000000 0.000000 0.000000 
0.000380 0.951484 0.000816 -1.029245 -0.254680 2.315408 6.182657 0.031040 3.714764 -5.608985 0.526594 -5.646694 5.285261 13.123385 12.197949 0.000000 0.000000 0.000000 -4.248995 0.041107 1.321509 2.972130 -0.355044 -3.283094 -3.034421 -11.051580 13.607807 0.000000 0.000000 0.000000 -1.625610 0.064534 -1.412785 4.474250 -0.645550 -21.350148 -1.905104 -0.959827 29.318487 -0.884286 1.798383 -23.716500 0.000000 0.000000 0.000000 -25.841388 3.807428 -3.543977 -52.584197 -9.295762 -4.920915 -13.109072 -22.110489 3.797192 0.000000 0.000000 0.000000 15.966647 3.224623 0.647453 60.576379 5.041854 -6.157406 5.730012 23.004513 2.092441 0.000000 0.000000 0.000000 
0.000353 0.951497 0.000839 -1.007758 -0.445036 2.338523 6.110805 0.036489 3.678846 -5.591077 0.527912 -5.680391 5.410291 13.276781 11.991992 0.000000 0.000000 0.000000 -4.299911 0.046250 1.308481 3.046512 -0.358019 -3.184240 -3.048639 -11.075576 13.480622 0.000000 0.000000 0.000000 -1.603096 0.068108 -1.533512 4.402113 -0.637929 -21.223770 -1.899809 -0.788934 29.360129 -0.981253 1.860793 -23.544183 0.000000 0.000000 0.000000 -25.913878 3.690095 -3.493415 -52.473743 -9.241899 -4.935821 -12.999692 -22.120159 3.772197 0.000000 0.000000 0.000000 16.233522 3.352984 0.712441 60.334171 5.136065 -6.092832 5.583038 23.069905 2.071907 0.000000 0.000000 0.000000 
0.000296 0.951757 0.000845 -0.976621 -0.444391 2.337736 6.171694 0.034292 3.697454 -5.675687 0.531704 -5.766519 5.402889 13.275267 12.066599 0.000000 0.000000 0.000000 -4.353242 0.049628 1.289730 3.071597 -0.358402 -3.061486 -3.051260 -11.086864 13.514781 0.000000 0.000000 0.000000 -1.613847 0.069956 -1.600587 4.438326 -0.644324 -21.272200 -1.891364 -0.756692 29.433625 -0.944469 1.839653 -23.458796 0.000000 0.000000 0.000000 -26.017558 3.694869 -3.516350 -52.407796 -9.024620 -5.031623 -12.828434 -22.200482 3.751919 0.000000 0.000000 0.000000 16.301195 3.248073 0.665247 60.237225 5.121139 -6.103989 5.450967 23.097705 2.052988 0.000000 0.000000 0.000000 
0.000219 0.952071 0.000870 -1.005765 -0.407904 2.331173 6.251250 0.033433 3.795107 -5.670419 0.527633 -5.991796 5.264215 13.078917 12.191593 0.000000 0.000000 0.000000 -4.397624 0.045608 1.377222 3.200079 -0.368912 -3.087986 -3.092663 -11.175263 13.612675 0.000000 0.000000 0.000000 -1.629661 0.073539 -1.733169 4.591677 -0.699877 -21.043070 -1.907775 -0.722919 29.254932 -0.812822 1.764779 -23.351916 0.000000 0.000000 0.000000 -25.823342 3.752982 -3.559778 -52.424635 -8.882686 -5.065007 -12.853782 -21.991552 3.712692 0.000000 0.000000 0.000000 16.191290 3.087323 0.593585 60.218344 5.196543 -6.039009 5.289848 23.189036 2.032992 0.000000 0.000000 0.000000 
